# xmcd
#
# Track frame offsets:
#	150
#	20844
#	42280
#	57875
#	77943
#	94401
#	108054
#	126535
#	145213
#	156479
#
# Disc length: 2288 seconds
#
# Revision: 0
# Processed by: cddbd v1.5.1PL0 Copyright (c) Steve Scherf et al.
# Submitted via: audiograbber 1.83.01
#
DISCID=8e08ee0a
DTITLE=Медвежий угол - Доза тепла
DYEAR=2005
DGENRE=Rock
TTITLE0=Запойная
TTITLE1=Разговор с Ангелом
TTITLE2=Волки
TTITLE3=Доза тепла
TTITLE4=Дед Мазай и зайцы
TTITLE5=Барыня
TTITLE6=Ночная гроза
TTITLE7=Блюз в детство
TTITLE8=Весна
TTITLE9=Самба гремящих костей
EXTD=
EXTT0=
EXTT1=
EXTT2=
EXTT3=
EXTT4=
EXTT5=
EXTT6=
EXTT7=
EXTT8=
EXTT9=
PLAYORDER=
